<mxfile host="Electron" agent="Mozilla/5.0 (X11; Linux x86_64) AppleWebKit/537.36 (KHTML, like Gecko) draw.io/26.1.1 Chrome/132.0.6834.210 Electron/34.3.2 Safari/537.36" version="26.1.1">
  <diagram id="C5RBs43oDa-KdzZeNtuy" name="Page-1">
    <mxGraphModel dx="1772" dy="1127" grid="0" gridSize="10" guides="1" tooltips="1" connect="1" arrows="1" fold="1" page="0" pageScale="1" pageWidth="827" pageHeight="1169" math="0" shadow="0">
      <root>
        <mxCell id="WIyWlLk6GJQsqaUBKTNV-0" />
        <mxCell id="WIyWlLk6GJQsqaUBKTNV-1" parent="WIyWlLk6GJQsqaUBKTNV-0" />
        <mxCell id="sb6i_JsN-GLQgKSfz3Fc-4" value="Calculator" style="swimlane;fontStyle=1;align=center;verticalAlign=top;childLayout=stackLayout;horizontal=1;startSize=26;horizontalStack=0;resizeParent=1;resizeParentMax=0;resizeLast=0;collapsible=1;marginBottom=0;whiteSpace=wrap;html=1;" parent="WIyWlLk6GJQsqaUBKTNV-1" vertex="1">
          <mxGeometry x="78" y="134" width="565" height="266" as="geometry" />
        </mxCell>
        <mxCell id="sb6i_JsN-GLQgKSfz3Fc-5" value="&lt;span style=&quot;color: rgb(0, 0, 0); font-family: Helvetica; font-size: 12px; font-style: normal; font-variant-ligatures: normal; font-variant-caps: normal; font-weight: 400; letter-spacing: normal; orphans: 2; text-align: left; text-indent: 0px; text-transform: none; widows: 2; word-spacing: 0px; -webkit-text-stroke-width: 0px; white-space: normal; background-color: rgb(255, 255, 255); text-decoration-thickness: initial; text-decoration-style: initial; text-decoration-color: initial; display: inline !important; float: none;&quot;&gt;+ span&amp;lt;Function&amp;gt; ListFunctions()&lt;/span&gt;" style="text;strokeColor=none;fillColor=none;align=left;verticalAlign=top;spacingLeft=4;spacingRight=4;overflow=hidden;rotatable=0;points=[[0,0.5],[1,0.5]];portConstraint=eastwest;whiteSpace=wrap;html=1;" parent="sb6i_JsN-GLQgKSfz3Fc-4" vertex="1">
          <mxGeometry y="26" width="565" height="26" as="geometry" />
        </mxCell>
        <mxCell id="sb6i_JsN-GLQgKSfz3Fc-8" value="&lt;span style=&quot;color: rgb(0, 0, 0); font-family: Helvetica; font-size: 12px; font-style: normal; font-variant-ligatures: normal; font-variant-caps: normal; font-weight: 400; letter-spacing: normal; orphans: 2; text-align: left; text-indent: 0px; text-transform: none; widows: 2; word-spacing: 0px; -webkit-text-stroke-width: 0px; white-space: normal; background-color: rgb(255, 255, 255); text-decoration-thickness: initial; text-decoration-style: initial; text-decoration-color: initial; display: inline !important; float: none;&quot;&gt;+ span&amp;lt;Variable&amp;gt; ListVariables()&lt;/span&gt;" style="text;strokeColor=none;fillColor=none;align=left;verticalAlign=top;spacingLeft=4;spacingRight=4;overflow=hidden;rotatable=0;points=[[0,0.5],[1,0.5]];portConstraint=eastwest;whiteSpace=wrap;html=1;" parent="sb6i_JsN-GLQgKSfz3Fc-4" vertex="1">
          <mxGeometry y="52" width="565" height="26" as="geometry" />
        </mxCell>
        <mxCell id="_RwPmkaiMAOCzkeCMt8L-24" value="&lt;span style=&quot;color: rgb(0, 0, 0); font-family: Helvetica; font-size: 12px; font-style: normal; font-variant-ligatures: normal; font-variant-caps: normal; font-weight: 400; letter-spacing: normal; orphans: 2; text-align: left; text-indent: 0px; text-transform: none; widows: 2; word-spacing: 0px; -webkit-text-stroke-width: 0px; white-space: normal; background-color: rgb(255, 255, 255); text-decoration-thickness: initial; text-decoration-style: initial; text-decoration-color: initial; display: inline !important; float: none;&quot;&gt;+ void DefineVariable(string name, double value = nan)&lt;/span&gt;" style="text;strokeColor=none;fillColor=none;align=left;verticalAlign=top;spacingLeft=4;spacingRight=4;overflow=hidden;rotatable=0;points=[[0,0.5],[1,0.5]];portConstraint=eastwest;whiteSpace=wrap;html=1;" parent="sb6i_JsN-GLQgKSfz3Fc-4" vertex="1">
          <mxGeometry y="78" width="565" height="26" as="geometry" />
        </mxCell>
        <mxCell id="_RwPmkaiMAOCzkeCMt8L-27" value="+ void DefineUnaryFunction(string name, UnaruOperation op, value: double)" style="text;strokeColor=none;fillColor=none;align=left;verticalAlign=top;spacingLeft=4;spacingRight=4;overflow=hidden;rotatable=0;points=[[0,0.5],[1,0.5]];portConstraint=eastwest;whiteSpace=wrap;html=1;" parent="sb6i_JsN-GLQgKSfz3Fc-4" vertex="1">
          <mxGeometry y="104" width="565" height="25" as="geometry" />
        </mxCell>
        <mxCell id="_RwPmkaiMAOCzkeCMt8L-28" value="&lt;span style=&quot;color: rgb(0, 0, 0); font-family: Helvetica; font-size: 12px; font-style: normal; font-variant-ligatures: normal; font-variant-caps: normal; font-weight: 400; letter-spacing: normal; orphans: 2; text-align: left; text-indent: 0px; text-transform: none; widows: 2; word-spacing: 0px; -webkit-text-stroke-width: 0px; white-space: normal; background-color: rgb(255, 255, 255); text-decoration-thickness: initial; text-decoration-style: initial; text-decoration-color: initial; display: inline !important; float: none;&quot;&gt;+ void&amp;nbsp;DefineBinaryFunction(string name, BinaryOperation op, double arg1, double arg2)&lt;/span&gt;" style="text;strokeColor=none;fillColor=none;align=left;verticalAlign=top;spacingLeft=4;spacingRight=4;overflow=hidden;rotatable=0;points=[[0,0.5],[1,0.5]];portConstraint=eastwest;whiteSpace=wrap;html=1;" parent="sb6i_JsN-GLQgKSfz3Fc-4" vertex="1">
          <mxGeometry y="129" width="565" height="25" as="geometry" />
        </mxCell>
        <mxCell id="_RwPmkaiMAOCzkeCMt8L-23" value="&lt;span style=&quot;color: rgb(0, 0, 0); font-family: Helvetica; font-size: 12px; font-style: normal; font-variant-ligatures: normal; font-variant-caps: normal; font-weight: 400; letter-spacing: normal; orphans: 2; text-align: left; text-indent: 0px; text-transform: none; widows: 2; word-spacing: 0px; -webkit-text-stroke-width: 0px; white-space: normal; background-color: rgb(255, 255, 255); text-decoration-thickness: initial; text-decoration-style: initial; text-decoration-color: initial; display: inline !important; float: none;&quot;&gt;+ void&amp;nbsp;AssignValue(string name, double value)&lt;/span&gt;" style="text;strokeColor=none;fillColor=none;align=left;verticalAlign=top;spacingLeft=4;spacingRight=4;overflow=hidden;rotatable=0;points=[[0,0.5],[1,0.5]];portConstraint=eastwest;whiteSpace=wrap;html=1;" parent="sb6i_JsN-GLQgKSfz3Fc-4" vertex="1">
          <mxGeometry y="154" width="565" height="26" as="geometry" />
        </mxCell>
        <mxCell id="_RwPmkaiMAOCzkeCMt8L-22" value="&lt;span style=&quot;color: rgb(0, 0, 0); font-family: Helvetica; font-size: 12px; font-style: normal; font-variant-ligatures: normal; font-variant-caps: normal; font-weight: 400; letter-spacing: normal; orphans: 2; text-align: left; text-indent: 0px; text-transform: none; widows: 2; word-spacing: 0px; -webkit-text-stroke-width: 0px; white-space: normal; background-color: rgb(255, 255, 255); text-decoration-thickness: initial; text-decoration-style: initial; text-decoration-color: initial; display: inline !important; float: none;&quot;&gt;+ void GetValue(string name)&lt;/span&gt;" style="text;strokeColor=none;fillColor=none;align=left;verticalAlign=top;spacingLeft=4;spacingRight=4;overflow=hidden;rotatable=0;points=[[0,0.5],[1,0.5]];portConstraint=eastwest;whiteSpace=wrap;html=1;" parent="sb6i_JsN-GLQgKSfz3Fc-4" vertex="1">
          <mxGeometry y="180" width="565" height="26" as="geometry" />
        </mxCell>
        <mxCell id="sb6i_JsN-GLQgKSfz3Fc-6" value="" style="line;strokeWidth=1;fillColor=none;align=left;verticalAlign=middle;spacingTop=-1;spacingLeft=3;spacingRight=3;rotatable=0;labelPosition=right;points=[];portConstraint=eastwest;strokeColor=inherit;" parent="sb6i_JsN-GLQgKSfz3Fc-4" vertex="1">
          <mxGeometry y="206" width="565" height="8" as="geometry" />
        </mxCell>
        <mxCell id="sb6i_JsN-GLQgKSfz3Fc-19" value="- map&amp;lt;string, Function&amp;gt; m_variables" style="text;strokeColor=none;fillColor=none;align=left;verticalAlign=top;spacingLeft=4;spacingRight=4;overflow=hidden;rotatable=0;points=[[0,0.5],[1,0.5]];portConstraint=eastwest;whiteSpace=wrap;html=1;" parent="sb6i_JsN-GLQgKSfz3Fc-4" vertex="1">
          <mxGeometry y="214" width="565" height="26" as="geometry" />
        </mxCell>
        <mxCell id="sb6i_JsN-GLQgKSfz3Fc-20" value="- map&amp;lt;string, Variable&amp;gt; m_funcitons" style="text;strokeColor=none;fillColor=none;align=left;verticalAlign=top;spacingLeft=4;spacingRight=4;overflow=hidden;rotatable=0;points=[[0,0.5],[1,0.5]];portConstraint=eastwest;whiteSpace=wrap;html=1;" parent="sb6i_JsN-GLQgKSfz3Fc-4" vertex="1">
          <mxGeometry y="240" width="565" height="26" as="geometry" />
        </mxCell>
        <mxCell id="sb6i_JsN-GLQgKSfz3Fc-11" value="CalculatorController" style="swimlane;fontStyle=1;align=center;verticalAlign=top;childLayout=stackLayout;horizontal=1;startSize=26;horizontalStack=0;resizeParent=1;resizeParentMax=0;resizeLast=0;collapsible=1;marginBottom=0;whiteSpace=wrap;html=1;" parent="WIyWlLk6GJQsqaUBKTNV-1" vertex="1">
          <mxGeometry x="-355" y="134" width="417" height="242" as="geometry" />
        </mxCell>
        <mxCell id="8oBD7yg9t4ULGHAhfyDF-2" value="+ CalculatorController(Calculator&amp;amp; calc, istream&amp;amp; input, ostream&amp;amp; output)" style="text;strokeColor=none;fillColor=none;align=left;verticalAlign=top;spacingLeft=4;spacingRight=4;overflow=hidden;rotatable=0;points=[[0,0.5],[1,0.5]];portConstraint=eastwest;whiteSpace=wrap;html=1;" vertex="1" parent="sb6i_JsN-GLQgKSfz3Fc-11">
          <mxGeometry y="26" width="417" height="26" as="geometry" />
        </mxCell>
        <mxCell id="8oBD7yg9t4ULGHAhfyDF-4" value="+ HandleCommands()" style="text;strokeColor=none;fillColor=none;align=left;verticalAlign=top;spacingLeft=4;spacingRight=4;overflow=hidden;rotatable=0;points=[[0,0.5],[1,0.5]];portConstraint=eastwest;whiteSpace=wrap;html=1;" vertex="1" parent="sb6i_JsN-GLQgKSfz3Fc-11">
          <mxGeometry y="52" width="417" height="26" as="geometry" />
        </mxCell>
        <mxCell id="sb6i_JsN-GLQgKSfz3Fc-14" value="" style="line;strokeWidth=1;fillColor=none;align=left;verticalAlign=middle;spacingTop=-1;spacingLeft=3;spacingRight=3;rotatable=0;labelPosition=right;points=[];portConstraint=eastwest;strokeColor=inherit;" parent="sb6i_JsN-GLQgKSfz3Fc-11" vertex="1">
          <mxGeometry y="78" width="417" height="8" as="geometry" />
        </mxCell>
        <mxCell id="sb6i_JsN-GLQgKSfz3Fc-16" value="- void AddVariable(std::istream&amp;amp; args)" style="text;strokeColor=none;fillColor=none;align=left;verticalAlign=top;spacingLeft=4;spacingRight=4;overflow=hidden;rotatable=0;points=[[0,0.5],[1,0.5]];portConstraint=eastwest;whiteSpace=wrap;html=1;" parent="sb6i_JsN-GLQgKSfz3Fc-11" vertex="1">
          <mxGeometry y="86" width="417" height="26" as="geometry" />
        </mxCell>
        <mxCell id="_RwPmkaiMAOCzkeCMt8L-0" value="-&lt;span style=&quot;background-color: transparent; color: light-dark(rgb(0, 0, 0), rgb(255, 255, 255));&quot;&gt;&amp;nbsp;&lt;/span&gt;void&amp;nbsp;&lt;span style=&quot;background-color: transparent; color: light-dark(rgb(0, 0, 0), rgb(255, 255, 255));&quot;&gt;AddFunction(std::istream&amp;amp; args)&lt;/span&gt;" style="text;strokeColor=none;fillColor=none;align=left;verticalAlign=top;spacingLeft=4;spacingRight=4;overflow=hidden;rotatable=0;points=[[0,0.5],[1,0.5]];portConstraint=eastwest;whiteSpace=wrap;html=1;" parent="sb6i_JsN-GLQgKSfz3Fc-11" vertex="1">
          <mxGeometry y="112" width="417" height="26" as="geometry" />
        </mxCell>
        <mxCell id="_RwPmkaiMAOCzkeCMt8L-1" value="- void GetValue(std::istream&amp;amp; args)" style="text;strokeColor=none;fillColor=none;align=left;verticalAlign=top;spacingLeft=4;spacingRight=4;overflow=hidden;rotatable=0;points=[[0,0.5],[1,0.5]];portConstraint=eastwest;whiteSpace=wrap;html=1;" parent="sb6i_JsN-GLQgKSfz3Fc-11" vertex="1">
          <mxGeometry y="138" width="417" height="26" as="geometry" />
        </mxCell>
        <mxCell id="_RwPmkaiMAOCzkeCMt8L-2" value="- void Print(std::istream&amp;amp; args)" style="text;strokeColor=none;fillColor=none;align=left;verticalAlign=top;spacingLeft=4;spacingRight=4;overflow=hidden;rotatable=0;points=[[0,0.5],[1,0.5]];portConstraint=eastwest;whiteSpace=wrap;html=1;" parent="sb6i_JsN-GLQgKSfz3Fc-11" vertex="1">
          <mxGeometry y="164" width="417" height="26" as="geometry" />
        </mxCell>
        <mxCell id="8oBD7yg9t4ULGHAhfyDF-3" value="- Calculator m_calc" style="text;strokeColor=none;fillColor=none;align=left;verticalAlign=top;spacingLeft=4;spacingRight=4;overflow=hidden;rotatable=0;points=[[0,0.5],[1,0.5]];portConstraint=eastwest;whiteSpace=wrap;html=1;" vertex="1" parent="sb6i_JsN-GLQgKSfz3Fc-11">
          <mxGeometry y="190" width="417" height="26" as="geometry" />
        </mxCell>
        <mxCell id="sb6i_JsN-GLQgKSfz3Fc-12" value="- unordered_map&amp;lt;string, function&amp;lt;void(istream input)&amp;gt; m_commands&amp;nbsp;" style="text;strokeColor=none;fillColor=none;align=left;verticalAlign=top;spacingLeft=4;spacingRight=4;overflow=hidden;rotatable=0;points=[[0,0.5],[1,0.5]];portConstraint=eastwest;whiteSpace=wrap;html=1;" parent="sb6i_JsN-GLQgKSfz3Fc-11" vertex="1">
          <mxGeometry y="216" width="417" height="26" as="geometry" />
        </mxCell>
        <mxCell id="_RwPmkaiMAOCzkeCMt8L-29" style="rounded=0;orthogonalLoop=1;jettySize=auto;html=1;endArrow=block;endFill=0;dashed=1;" parent="WIyWlLk6GJQsqaUBKTNV-1" source="_RwPmkaiMAOCzkeCMt8L-8" target="G51UGEZFX_oxKExTZg33-18" edge="1">
          <mxGeometry relative="1" as="geometry">
            <mxPoint x="158.8809523809523" y="-135" as="targetPoint" />
          </mxGeometry>
        </mxCell>
        <mxCell id="8oBD7yg9t4ULGHAhfyDF-7" style="rounded=0;orthogonalLoop=1;jettySize=auto;html=1;endArrow=diamondThin;endFill=1;" edge="1" parent="WIyWlLk6GJQsqaUBKTNV-1" source="_RwPmkaiMAOCzkeCMt8L-8" target="sb6i_JsN-GLQgKSfz3Fc-4">
          <mxGeometry relative="1" as="geometry" />
        </mxCell>
        <mxCell id="_RwPmkaiMAOCzkeCMt8L-8" value="Variable" style="swimlane;fontStyle=1;align=center;verticalAlign=top;childLayout=stackLayout;horizontal=1;startSize=26;horizontalStack=0;resizeParent=1;resizeParentMax=0;resizeLast=0;collapsible=1;marginBottom=0;whiteSpace=wrap;html=1;" parent="WIyWlLk6GJQsqaUBKTNV-1" vertex="1">
          <mxGeometry x="-53" y="-95" width="199" height="138" as="geometry" />
        </mxCell>
        <mxCell id="8oBD7yg9t4ULGHAhfyDF-10" value="+ Variable(double value = nan)" style="text;strokeColor=none;fillColor=none;align=left;verticalAlign=top;spacingLeft=4;spacingRight=4;overflow=hidden;rotatable=0;points=[[0,0.5],[1,0.5]];portConstraint=eastwest;whiteSpace=wrap;html=1;" vertex="1" parent="_RwPmkaiMAOCzkeCMt8L-8">
          <mxGeometry y="26" width="199" height="26" as="geometry" />
        </mxCell>
        <mxCell id="G51UGEZFX_oxKExTZg33-7" value="+ double GetResult()" style="text;strokeColor=none;fillColor=none;align=left;verticalAlign=top;spacingLeft=4;spacingRight=4;overflow=hidden;rotatable=0;points=[[0,0.5],[1,0.5]];portConstraint=eastwest;whiteSpace=wrap;html=1;" parent="_RwPmkaiMAOCzkeCMt8L-8" vertex="1">
          <mxGeometry y="52" width="199" height="26" as="geometry" />
        </mxCell>
        <mxCell id="_RwPmkaiMAOCzkeCMt8L-9" value="+ void SetValue(double value)" style="text;strokeColor=none;fillColor=none;align=left;verticalAlign=top;spacingLeft=4;spacingRight=4;overflow=hidden;rotatable=0;points=[[0,0.5],[1,0.5]];portConstraint=eastwest;whiteSpace=wrap;html=1;" parent="_RwPmkaiMAOCzkeCMt8L-8" vertex="1">
          <mxGeometry y="78" width="199" height="26" as="geometry" />
        </mxCell>
        <mxCell id="_RwPmkaiMAOCzkeCMt8L-10" value="" style="line;strokeWidth=1;fillColor=none;align=left;verticalAlign=middle;spacingTop=-1;spacingLeft=3;spacingRight=3;rotatable=0;labelPosition=right;points=[];portConstraint=eastwest;strokeColor=inherit;" parent="_RwPmkaiMAOCzkeCMt8L-8" vertex="1">
          <mxGeometry y="104" width="199" height="8" as="geometry" />
        </mxCell>
        <mxCell id="_RwPmkaiMAOCzkeCMt8L-11" value="- double m_value" style="text;strokeColor=none;fillColor=none;align=left;verticalAlign=top;spacingLeft=4;spacingRight=4;overflow=hidden;rotatable=0;points=[[0,0.5],[1,0.5]];portConstraint=eastwest;whiteSpace=wrap;html=1;" parent="_RwPmkaiMAOCzkeCMt8L-8" vertex="1">
          <mxGeometry y="112" width="199" height="26" as="geometry" />
        </mxCell>
        <mxCell id="G51UGEZFX_oxKExTZg33-6" style="rounded=0;orthogonalLoop=1;jettySize=auto;html=1;endArrow=block;endFill=0;dashed=1;" parent="WIyWlLk6GJQsqaUBKTNV-1" source="_RwPmkaiMAOCzkeCMt8L-13" target="G51UGEZFX_oxKExTZg33-18" edge="1">
          <mxGeometry relative="1" as="geometry">
            <mxPoint x="238" y="-135" as="targetPoint" />
          </mxGeometry>
        </mxCell>
        <mxCell id="8oBD7yg9t4ULGHAhfyDF-6" style="rounded=0;orthogonalLoop=1;jettySize=auto;html=1;endArrow=diamondThin;endFill=1;" edge="1" parent="WIyWlLk6GJQsqaUBKTNV-1" source="_RwPmkaiMAOCzkeCMt8L-13" target="sb6i_JsN-GLQgKSfz3Fc-4">
          <mxGeometry relative="1" as="geometry" />
        </mxCell>
        <mxCell id="_RwPmkaiMAOCzkeCMt8L-13" value="Function" style="swimlane;fontStyle=1;align=center;verticalAlign=top;childLayout=stackLayout;horizontal=1;startSize=26;horizontalStack=0;resizeParent=1;resizeParentMax=0;resizeLast=0;collapsible=1;marginBottom=0;whiteSpace=wrap;html=1;" parent="WIyWlLk6GJQsqaUBKTNV-1" vertex="1">
          <mxGeometry x="236" y="-95" width="249" height="78" as="geometry">
            <mxRectangle x="239" y="-19" width="81" height="26" as="alternateBounds" />
          </mxGeometry>
        </mxCell>
        <mxCell id="_RwPmkaiMAOCzkeCMt8L-14" value="+ double GetResult()" style="text;strokeColor=none;fillColor=none;align=left;verticalAlign=top;spacingLeft=4;spacingRight=4;overflow=hidden;rotatable=0;points=[[0,0.5],[1,0.5]];portConstraint=eastwest;whiteSpace=wrap;html=1;" parent="_RwPmkaiMAOCzkeCMt8L-13" vertex="1">
          <mxGeometry y="26" width="249" height="26" as="geometry" />
        </mxCell>
        <mxCell id="8oBD7yg9t4ULGHAhfyDF-9" value="- double&amp;nbsp;m_cachedValue" style="text;strokeColor=default;fillColor=none;align=left;verticalAlign=top;spacingLeft=4;spacingRight=4;overflow=hidden;rotatable=0;points=[[0,0.5],[1,0.5]];portConstraint=eastwest;whiteSpace=wrap;html=1;" vertex="1" parent="_RwPmkaiMAOCzkeCMt8L-13">
          <mxGeometry y="52" width="249" height="26" as="geometry" />
        </mxCell>
        <mxCell id="G51UGEZFX_oxKExTZg33-12" style="rounded=0;orthogonalLoop=1;jettySize=auto;html=1;endArrow=block;endFill=0;" parent="WIyWlLk6GJQsqaUBKTNV-1" source="G51UGEZFX_oxKExTZg33-8" target="_RwPmkaiMAOCzkeCMt8L-13" edge="1">
          <mxGeometry relative="1" as="geometry" />
        </mxCell>
        <mxCell id="G51UGEZFX_oxKExTZg33-8" value="BinaryFunction" style="swimlane;fontStyle=1;align=center;verticalAlign=top;childLayout=stackLayout;horizontal=1;startSize=26;horizontalStack=0;resizeParent=1;resizeParentMax=0;resizeLast=0;collapsible=1;marginBottom=0;whiteSpace=wrap;html=1;" parent="WIyWlLk6GJQsqaUBKTNV-1" vertex="1">
          <mxGeometry x="617" y="-78" width="396" height="164" as="geometry" />
        </mxCell>
        <mxCell id="G51UGEZFX_oxKExTZg33-28" value="+ BinaryFunction(fn: BinaryOperation, arg1: double, arg2: double)" style="text;strokeColor=none;fillColor=none;align=left;verticalAlign=top;spacingLeft=4;spacingRight=4;overflow=hidden;rotatable=0;points=[[0,0.5],[1,0.5]];portConstraint=eastwest;whiteSpace=wrap;html=1;" parent="G51UGEZFX_oxKExTZg33-8" vertex="1">
          <mxGeometry y="26" width="396" height="26" as="geometry" />
        </mxCell>
        <mxCell id="G51UGEZFX_oxKExTZg33-9" value="+ GetResult()" style="text;strokeColor=none;fillColor=none;align=left;verticalAlign=top;spacingLeft=4;spacingRight=4;overflow=hidden;rotatable=0;points=[[0,0.5],[1,0.5]];portConstraint=eastwest;whiteSpace=wrap;html=1;" parent="G51UGEZFX_oxKExTZg33-8" vertex="1">
          <mxGeometry y="52" width="396" height="26" as="geometry" />
        </mxCell>
        <mxCell id="G51UGEZFX_oxKExTZg33-10" value="" style="line;strokeWidth=1;fillColor=none;align=left;verticalAlign=middle;spacingTop=-1;spacingLeft=3;spacingRight=3;rotatable=0;labelPosition=right;points=[];portConstraint=eastwest;strokeColor=inherit;" parent="G51UGEZFX_oxKExTZg33-8" vertex="1">
          <mxGeometry y="78" width="396" height="8" as="geometry" />
        </mxCell>
        <mxCell id="G51UGEZFX_oxKExTZg33-11" value="- m_left: Expression" style="text;strokeColor=none;fillColor=none;align=left;verticalAlign=top;spacingLeft=4;spacingRight=4;overflow=hidden;rotatable=0;points=[[0,0.5],[1,0.5]];portConstraint=eastwest;whiteSpace=wrap;html=1;" parent="G51UGEZFX_oxKExTZg33-8" vertex="1">
          <mxGeometry y="86" width="396" height="26" as="geometry" />
        </mxCell>
        <mxCell id="G51UGEZFX_oxKExTZg33-20" value="- m_right: Expression" style="text;strokeColor=none;fillColor=none;align=left;verticalAlign=top;spacingLeft=4;spacingRight=4;overflow=hidden;rotatable=0;points=[[0,0.5],[1,0.5]];portConstraint=eastwest;whiteSpace=wrap;html=1;" parent="G51UGEZFX_oxKExTZg33-8" vertex="1">
          <mxGeometry y="112" width="396" height="26" as="geometry" />
        </mxCell>
        <mxCell id="G51UGEZFX_oxKExTZg33-19" value="- m_fn: BinaryOperation" style="text;strokeColor=none;fillColor=none;align=left;verticalAlign=top;spacingLeft=4;spacingRight=4;overflow=hidden;rotatable=0;points=[[0,0.5],[1,0.5]];portConstraint=eastwest;whiteSpace=wrap;html=1;" parent="G51UGEZFX_oxKExTZg33-8" vertex="1">
          <mxGeometry y="138" width="396" height="26" as="geometry" />
        </mxCell>
        <mxCell id="G51UGEZFX_oxKExTZg33-17" style="rounded=0;orthogonalLoop=1;jettySize=auto;html=1;endArrow=block;endFill=0;" parent="WIyWlLk6GJQsqaUBKTNV-1" source="G51UGEZFX_oxKExTZg33-13" target="_RwPmkaiMAOCzkeCMt8L-13" edge="1">
          <mxGeometry relative="1" as="geometry" />
        </mxCell>
        <mxCell id="G51UGEZFX_oxKExTZg33-13" value="UnaryFunction" style="swimlane;fontStyle=1;align=center;verticalAlign=top;childLayout=stackLayout;horizontal=1;startSize=26;horizontalStack=0;resizeParent=1;resizeParentMax=0;resizeLast=0;collapsible=1;marginBottom=0;whiteSpace=wrap;html=1;" parent="WIyWlLk6GJQsqaUBKTNV-1" vertex="1">
          <mxGeometry x="617" y="-239" width="293" height="138" as="geometry" />
        </mxCell>
        <mxCell id="G51UGEZFX_oxKExTZg33-29" value="+ UnaryFunction(fn: UnaryOperation, arg: double)" style="text;strokeColor=none;fillColor=none;align=left;verticalAlign=top;spacingLeft=4;spacingRight=4;overflow=hidden;rotatable=0;points=[[0,0.5],[1,0.5]];portConstraint=eastwest;whiteSpace=wrap;html=1;" parent="G51UGEZFX_oxKExTZg33-13" vertex="1">
          <mxGeometry y="26" width="293" height="26" as="geometry" />
        </mxCell>
        <mxCell id="G51UGEZFX_oxKExTZg33-14" value="+ GetResult()" style="text;strokeColor=none;fillColor=none;align=left;verticalAlign=top;spacingLeft=4;spacingRight=4;overflow=hidden;rotatable=0;points=[[0,0.5],[1,0.5]];portConstraint=eastwest;whiteSpace=wrap;html=1;" parent="G51UGEZFX_oxKExTZg33-13" vertex="1">
          <mxGeometry y="52" width="293" height="26" as="geometry" />
        </mxCell>
        <mxCell id="G51UGEZFX_oxKExTZg33-15" value="" style="line;strokeWidth=1;fillColor=none;align=left;verticalAlign=middle;spacingTop=-1;spacingLeft=3;spacingRight=3;rotatable=0;labelPosition=right;points=[];portConstraint=eastwest;strokeColor=inherit;" parent="G51UGEZFX_oxKExTZg33-13" vertex="1">
          <mxGeometry y="78" width="293" height="8" as="geometry" />
        </mxCell>
        <mxCell id="G51UGEZFX_oxKExTZg33-16" value="- m_arg: Expression" style="text;strokeColor=none;fillColor=none;align=left;verticalAlign=top;spacingLeft=4;spacingRight=4;overflow=hidden;rotatable=0;points=[[0,0.5],[1,0.5]];portConstraint=eastwest;whiteSpace=wrap;html=1;" parent="G51UGEZFX_oxKExTZg33-13" vertex="1">
          <mxGeometry y="86" width="293" height="26" as="geometry" />
        </mxCell>
        <mxCell id="G51UGEZFX_oxKExTZg33-21" value="- m_fn: UnaryOperation" style="text;strokeColor=none;fillColor=none;align=left;verticalAlign=top;spacingLeft=4;spacingRight=4;overflow=hidden;rotatable=0;points=[[0,0.5],[1,0.5]];portConstraint=eastwest;whiteSpace=wrap;html=1;" parent="G51UGEZFX_oxKExTZg33-13" vertex="1">
          <mxGeometry y="112" width="293" height="26" as="geometry" />
        </mxCell>
        <mxCell id="G51UGEZFX_oxKExTZg33-18" value="&lt;p style=&quot;margin:0px;margin-top:4px;text-align:center;&quot;&gt;&lt;i&gt;&amp;lt;&amp;lt;Interface&amp;gt;&amp;gt;&lt;/i&gt;&lt;br&gt;&lt;b&gt;Expression&lt;/b&gt;&lt;/p&gt;&lt;hr size=&quot;1&quot; style=&quot;border-style:solid;&quot;&gt;&lt;p style=&quot;margin:0px;margin-left:4px;&quot;&gt;+&amp;nbsp;&lt;span style=&quot;background-color: transparent; color: light-dark(rgb(0, 0, 0), rgb(255, 255, 255));&quot;&gt;double&amp;nbsp;&lt;/span&gt;&lt;span style=&quot;background-color: transparent; color: light-dark(rgb(0, 0, 0), rgb(255, 255, 255));&quot;&gt;GetResult()&lt;/span&gt;&lt;/p&gt;&lt;p style=&quot;margin:0px;margin-left:4px;&quot;&gt;&lt;br&gt;&lt;/p&gt;" style="verticalAlign=top;align=left;overflow=fill;html=1;whiteSpace=wrap;" parent="WIyWlLk6GJQsqaUBKTNV-1" vertex="1">
          <mxGeometry x="113" y="-217" width="190" height="69" as="geometry" />
        </mxCell>
        <mxCell id="8oBD7yg9t4ULGHAhfyDF-0" style="rounded=0;orthogonalLoop=1;jettySize=auto;html=1;endArrow=diamondThin;endFill=0;" edge="1" parent="WIyWlLk6GJQsqaUBKTNV-1" source="G51UGEZFX_oxKExTZg33-22" target="G51UGEZFX_oxKExTZg33-13">
          <mxGeometry relative="1" as="geometry" />
        </mxCell>
        <mxCell id="G51UGEZFX_oxKExTZg33-22" value="&lt;b&gt;UnaryOperation&lt;/b&gt;" style="swimlane;fontStyle=0;childLayout=stackLayout;horizontal=1;startSize=26;fillColor=none;horizontalStack=0;resizeParent=1;resizeParentMax=0;resizeLast=0;collapsible=1;marginBottom=0;whiteSpace=wrap;html=1;" parent="WIyWlLk6GJQsqaUBKTNV-1" vertex="1">
          <mxGeometry x="1056" y="-196" width="211" height="52" as="geometry" />
        </mxCell>
        <mxCell id="G51UGEZFX_oxKExTZg33-23" value="+ operator(double)" style="text;strokeColor=none;fillColor=none;align=left;verticalAlign=top;spacingLeft=4;spacingRight=4;overflow=hidden;rotatable=0;points=[[0,0.5],[1,0.5]];portConstraint=eastwest;whiteSpace=wrap;html=1;" parent="G51UGEZFX_oxKExTZg33-22" vertex="1">
          <mxGeometry y="26" width="211" height="26" as="geometry" />
        </mxCell>
        <mxCell id="8oBD7yg9t4ULGHAhfyDF-1" style="rounded=0;orthogonalLoop=1;jettySize=auto;html=1;endArrow=diamondThin;endFill=0;" edge="1" parent="WIyWlLk6GJQsqaUBKTNV-1" source="G51UGEZFX_oxKExTZg33-26" target="G51UGEZFX_oxKExTZg33-8">
          <mxGeometry relative="1" as="geometry" />
        </mxCell>
        <mxCell id="G51UGEZFX_oxKExTZg33-26" value="&lt;b&gt;BinaryOperation&lt;/b&gt;" style="swimlane;fontStyle=0;childLayout=stackLayout;horizontal=1;startSize=26;fillColor=none;horizontalStack=0;resizeParent=1;resizeParentMax=0;resizeLast=0;collapsible=1;marginBottom=0;whiteSpace=wrap;html=1;" parent="WIyWlLk6GJQsqaUBKTNV-1" vertex="1">
          <mxGeometry x="1048" y="7" width="211" height="52" as="geometry" />
        </mxCell>
        <mxCell id="G51UGEZFX_oxKExTZg33-27" value="+ operator(double, double)" style="text;strokeColor=none;fillColor=none;align=left;verticalAlign=top;spacingLeft=4;spacingRight=4;overflow=hidden;rotatable=0;points=[[0,0.5],[1,0.5]];portConstraint=eastwest;whiteSpace=wrap;html=1;" parent="G51UGEZFX_oxKExTZg33-26" vertex="1">
          <mxGeometry y="26" width="211" height="26" as="geometry" />
        </mxCell>
      </root>
    </mxGraphModel>
  </diagram>
</mxfile>
